# xmcd CD database file
#
# Track frame offsets:
#	182
#	1780
#	18150
#	31290
#	48140
#	62460
#	74410
#	89952
#	104032
#	113862
#	127207
#	144970
#	153222
#	171397
#	197985
#	216387
#	229792
#	241705
#	249880
#	270860
#	280517
#
# Disc length: 3989 seconds
#
# Revision: 0
# Processed by: cddbd v1.5.1PL0 Copyright (c) Steve Scherf et al.
# Submitted via: CDex 1.51
#
DISCID=1f0f9315
DTITLE=Erroll Garner - The Erroll Garner Trio Live
DYEAR=1900
DGENRE=Jazz
TTITLE0=Theme
TTITLE1=Just Too Marvellous for Words
TTITLE2=Misty
TTITLE3=Stompin' At the Savoy
TTITLE4=7-11 Stomp
TTITLE5=Lover
TTITLE6=I'll Remember April
TTITLE7=Dreamin'
TTITLE8=Passin' Through
TTITLE9=Back in Your Own Back Yard
TTITLE10=El Papa Grande
TTITLE11=Just One of Those Things
TTITLE12=How High The Moon
TTITLE13=Caravan
TTITLE14=Two Handed Blues
TTITLE15=I Only Have Eyes for You
TTITLE16=When Your Lover Has Gone
TTITLE17=Theme
TTITLE18=It's Allright with Me
TTITLE19=Where or When
TTITLE20=Tea for Three (with Billy Maxted and Ralph Font)
EXTD=
EXTT0=
EXTT1=
EXTT2=
EXTT3=
EXTT4=
EXTT5=
EXTT6=
EXTT7=
EXTT8=
EXTT9=
EXTT10=
EXTT11=
EXTT12=
EXTT13=
EXTT14=
EXTT15=
EXTT16=
EXTT17=
EXTT18=
EXTT19=
EXTT20=
PLAYORDER=
